<mxfile host="Electron" modified="2024-07-20T20:20:04.269Z" agent="Mozilla/5.0 (Windows NT 10.0; Win64; x64) AppleWebKit/537.36 (KHTML, like Gecko) draw.io/24.6.4 Chrome/124.0.6367.207 Electron/30.0.6 Safari/537.36" etag="DtEcR1UxtY__pTS5qrSL" version="24.6.4" type="device">
  <diagram name="PÃ¡gina-1" id="jQoiph2c1nl-3ZJ2nl2n">
    <mxGraphModel dx="880" dy="532" grid="1" gridSize="10" guides="1" tooltips="1" connect="1" arrows="1" fold="1" page="1" pageScale="1" pageWidth="827" pageHeight="1169" math="0" shadow="0">
      <root>
        <mxCell id="0" />
        <mxCell id="1" parent="0" />
        <mxCell id="DvdFpIc3kAiTPLH7OsFK-1" value="" style="rounded=0;whiteSpace=wrap;html=1;fillColor=#fff2cc;strokeColor=#000000;" vertex="1" parent="1">
          <mxGeometry x="180" y="340" width="30" height="40" as="geometry" />
        </mxCell>
        <mxCell id="DvdFpIc3kAiTPLH7OsFK-2" value="" style="endArrow=none;html=1;rounded=0;exitX=1;exitY=1;exitDx=0;exitDy=0;entryX=0;entryY=0;entryDx=0;entryDy=0;exitPerimeter=0;" edge="1" parent="1" source="DvdFpIc3kAiTPLH7OsFK-1" target="DvdFpIc3kAiTPLH7OsFK-1">
          <mxGeometry width="50" height="50" relative="1" as="geometry">
            <mxPoint x="230" y="370" as="sourcePoint" />
            <mxPoint x="280" y="320" as="targetPoint" />
          </mxGeometry>
        </mxCell>
        <mxCell id="DvdFpIc3kAiTPLH7OsFK-3" value="" style="rounded=0;whiteSpace=wrap;html=1;fillColor=#eeeeee;strokeColor=#36393D;strokeWidth=2;" vertex="1" parent="1">
          <mxGeometry x="50" y="320" width="100" height="140" as="geometry" />
        </mxCell>
        <mxCell id="DvdFpIc3kAiTPLH7OsFK-4" value="&lt;font style=&quot;font-size: 14px;&quot; face=&quot;Courier New&quot;&gt;&lt;b&gt;head&lt;/b&gt;&lt;/font&gt;" style="rounded=0;whiteSpace=wrap;html=1;fillColor=#dae8fc;strokeColor=#6C8EBF;" vertex="1" parent="1">
          <mxGeometry x="74" y="340" width="50" height="40" as="geometry" />
        </mxCell>
        <mxCell id="DvdFpIc3kAiTPLH7OsFK-5" value="" style="endArrow=classic;html=1;rounded=0;exitX=1;exitY=0.5;exitDx=0;exitDy=0;strokeColor=#6C8EBF;entryX=0;entryY=0.5;entryDx=0;entryDy=0;" edge="1" parent="1" source="DvdFpIc3kAiTPLH7OsFK-4">
          <mxGeometry width="50" height="50" relative="1" as="geometry">
            <mxPoint x="270" y="480" as="sourcePoint" />
            <mxPoint x="180" y="360" as="targetPoint" />
          </mxGeometry>
        </mxCell>
        <mxCell id="DvdFpIc3kAiTPLH7OsFK-6" value="&lt;font style=&quot;font-size: 16px;&quot; face=&quot;Courier New&quot;&gt;&lt;b&gt;queue&lt;/b&gt;&lt;/font&gt;" style="text;html=1;align=center;verticalAlign=middle;whiteSpace=wrap;rounded=0;" vertex="1" parent="1">
          <mxGeometry x="70" y="460" width="60" height="30" as="geometry" />
        </mxCell>
        <mxCell id="DvdFpIc3kAiTPLH7OsFK-7" value="&lt;font style=&quot;font-size: 14px;&quot; face=&quot;Courier New&quot;&gt;&lt;b&gt;tail&lt;/b&gt;&lt;/font&gt;" style="rounded=0;whiteSpace=wrap;html=1;fillColor=#fad9d5;strokeColor=#ae4132;" vertex="1" parent="1">
          <mxGeometry x="74" y="397" width="50" height="40" as="geometry" />
        </mxCell>
        <mxCell id="DvdFpIc3kAiTPLH7OsFK-8" value="" style="endArrow=classic;html=1;rounded=0;exitX=1;exitY=0.5;exitDx=0;exitDy=0;strokeColor=#AE4132;entryX=0;entryY=0.5;entryDx=0;entryDy=0;" edge="1" parent="1" source="DvdFpIc3kAiTPLH7OsFK-7">
          <mxGeometry width="50" height="50" relative="1" as="geometry">
            <mxPoint x="270" y="537" as="sourcePoint" />
            <mxPoint x="180" y="417" as="targetPoint" />
          </mxGeometry>
        </mxCell>
        <mxCell id="DvdFpIc3kAiTPLH7OsFK-9" value="" style="rounded=0;whiteSpace=wrap;html=1;fillColor=#fff2cc;strokeColor=#000000;" vertex="1" parent="1">
          <mxGeometry x="180" y="397" width="30" height="40" as="geometry" />
        </mxCell>
        <mxCell id="DvdFpIc3kAiTPLH7OsFK-10" value="" style="endArrow=none;html=1;rounded=0;exitX=1;exitY=1;exitDx=0;exitDy=0;entryX=0;entryY=0;entryDx=0;entryDy=0;exitPerimeter=0;" edge="1" parent="1" source="DvdFpIc3kAiTPLH7OsFK-9" target="DvdFpIc3kAiTPLH7OsFK-9">
          <mxGeometry width="50" height="50" relative="1" as="geometry">
            <mxPoint x="230" y="427" as="sourcePoint" />
            <mxPoint x="280" y="377" as="targetPoint" />
          </mxGeometry>
        </mxCell>
      </root>
    </mxGraphModel>
  </diagram>
</mxfile>
